<svg width="32" height="32" viewBox="0 0 32 32" fill="none" xmlns="http://www.w3.org/2000/svg">
<g clip-path="url(#clip0_0_559)">
<rect width="32" height="32" rx="16" fill="#DBDEE6"/>
<path d="M20.7395 20.7535C20.5879 20.6525 20.4109 20.6777 20.2846 20.7788C19.0208 21.7139 17.479 22.2448 15.7854 22.2448C14.0919 22.2448 12.5501 21.6887 11.2863 20.7788C11.1598 20.6777 10.9576 20.6777 10.8314 20.7535C7.84886 22.6745 6.35742 26.4408 6.35742 30.763C6.35742 33.7456 25.2136 33.7456 25.2136 30.763C25.2132 26.4407 23.7219 22.6746 20.7394 20.7535H20.7395Z" fill="white"/>
<path d="M21.422 14.6367C21.422 17.7497 18.8985 20.2733 15.7854 20.2733C12.6724 20.2733 10.1488 17.7496 10.1488 14.6367C10.1488 11.5238 12.6724 9 15.7854 9C18.8985 9 21.422 11.5236 21.422 14.6367Z" fill="white"/>
</g>
<defs>
<clipPath id="clip0_0_559">
<rect width="32" height="32" rx="16" fill="white"/>
</clipPath>
</defs>
</svg>
