<svg width="20" height="20" viewBox="0 0 20 20" fill="none" xmlns="http://www.w3.org/2000/svg">
<mask id="mask0_0_540" style="mask-type:alpha" maskUnits="userSpaceOnUse" x="0" y="0" width="20" height="20">
<rect width="20" height="20" fill="#D9D9D9"/>
</mask>
<g mask="url(#mask0_0_540)">
<path d="M5.83335 11.4583H10.8334C11.0107 11.4583 11.1592 11.3984 11.2789 11.2788C11.3985 11.1591 11.4583 11.0106 11.4583 10.8333C11.4583 10.6559 11.3985 10.5074 11.2789 10.3878C11.1592 10.2681 11.0107 10.2083 10.8334 10.2083H5.83335C5.65601 10.2083 5.50751 10.2681 5.38785 10.3878C5.2682 10.5074 5.20837 10.6559 5.20837 10.8333C5.20837 11.0106 5.2682 11.1591 5.38785 11.2788C5.50751 11.3984 5.65601 11.4583 5.83335 11.4583ZM5.83335 8.95827H14.1667C14.344 8.95827 14.4925 8.89845 14.6122 8.77879C14.7318 8.65914 14.7917 8.51064 14.7917 8.33329C14.7917 8.15595 14.7318 8.00745 14.6122 7.88779C14.4925 7.76814 14.344 7.70831 14.1667 7.70831H5.83335C5.65601 7.70831 5.50751 7.76814 5.38785 7.88779C5.2682 8.00745 5.20837 8.15595 5.20837 8.33329C5.20837 8.51064 5.2682 8.65914 5.38785 8.77879C5.50751 8.89845 5.65601 8.95827 5.83335 8.95827ZM5.83335 6.45827H14.1667C14.344 6.45827 14.4925 6.39845 14.6122 6.27879C14.7318 6.15914 14.7917 6.01064 14.7917 5.83329C14.7917 5.65595 14.7318 5.50745 14.6122 5.38779C14.4925 5.26814 14.344 5.20831 14.1667 5.20831H5.83335C5.65601 5.20831 5.50751 5.26814 5.38785 5.38779C5.2682 5.50745 5.20837 5.65595 5.20837 5.83329C5.20837 6.01064 5.2682 6.15914 5.38785 6.27879C5.50751 6.39845 5.65601 6.45827 5.83335 6.45827ZM5.03208 14.5833L3.36383 16.2515C3.12665 16.4887 2.85395 16.5424 2.54573 16.4126C2.23749 16.2828 2.08337 16.0491 2.08337 15.7115V3.58973C2.08337 3.16879 2.22921 2.81248 2.52087 2.52081C2.81254 2.22915 3.16885 2.08331 3.58979 2.08331H16.4102C16.8312 2.08331 17.1875 2.22915 17.4792 2.52081C17.7708 2.81248 17.9167 3.16879 17.9167 3.58973V13.0769C17.9167 13.4978 17.7708 13.8541 17.4792 14.1458C17.1875 14.4374 16.8312 14.5833 16.4102 14.5833H5.03208ZM4.50004 13.3333H16.4102C16.4744 13.3333 16.5331 13.3066 16.5866 13.2532C16.64 13.1997 16.6667 13.141 16.6667 13.0769V3.58973C16.6667 3.52562 16.64 3.46685 16.5866 3.41342C16.5331 3.36 16.4744 3.33329 16.4102 3.33329H3.58979C3.52568 3.33329 3.46691 3.36 3.41348 3.41342C3.36006 3.46685 3.33335 3.52562 3.33335 3.58973V14.4871L4.50004 13.3333Z" fill="#56616B"/>
</g>
</svg>
