<svg width="20" height="20" viewBox="0 0 20 20" fill="none" xmlns="http://www.w3.org/2000/svg">
<mask id="mask0_1_1486" style="mask-type:alpha" maskUnits="userSpaceOnUse" x="0" y="0" width="20" height="20">
<rect width="20" height="20" fill="#C4C4C4"/>
</mask>
<g mask="url(#mask0_1_1486)">
<path d="M9.99996 12.6875L7.04163 9.75L7.64579 9.14583L9.58329 11.0833V3.875H10.4166V11.0833L12.3541 9.14583L12.9583 9.75L9.99996 12.6875ZM5.52079 15.8333C5.1319 15.8333 4.80913 15.705 4.55246 15.4483C4.29524 15.1911 4.16663 14.8681 4.16663 14.4792V12.5H4.99996V14.4792C4.99996 14.6181 5.05218 14.7394 5.15663 14.8433C5.26051 14.9478 5.3819 15 5.52079 15H14.4791C14.618 15 14.7394 14.9478 14.8433 14.8433C14.9477 14.7394 15 14.6181 15 14.4792V12.5H15.8333V14.4792C15.8333 14.8681 15.705 15.1911 15.4483 15.4483C15.1911 15.705 14.868 15.8333 14.4791 15.8333H5.52079Z" fill="#131316"/>
</g>
</svg>
