<svg width="20" height="20" viewBox="0 0 20 20" fill="none" xmlns="http://www.w3.org/2000/svg">
<mask id="mask0_0_486" style="mask-type:alpha" maskUnits="userSpaceOnUse" x="0" y="0" width="20" height="20">
<rect width="20" height="20" fill="#D9D9D9"/>
</mask>
<g mask="url(#mask0_0_486)">
<path d="M4.72124 16.1121H7.9408V11.6025C7.9408 11.4338 7.99732 11.293 8.11036 11.1799C8.2234 11.0669 8.36427 11.0104 8.53295 11.0104H11.4816C11.6392 11.0104 11.7749 11.0669 11.8887 11.1799C12.0025 11.293 12.0593 11.4338 12.0593 11.6025V16.1121H15.2789V8.30818C15.2789 8.26544 15.2696 8.22671 15.2509 8.19199C15.2322 8.15727 15.2068 8.12655 15.1747 8.09984L10.1523 4.32849C10.1096 4.29643 10.0588 4.28041 10.0001 4.28041C9.94131 4.28041 9.89056 4.29643 9.84782 4.32849L4.8254 8.09984C4.79335 8.12655 4.76797 8.15727 4.74928 8.19199C4.73059 8.22671 4.72124 8.26544 4.72124 8.30818V16.1121ZM3.8078 16.1121V8.31566C3.8078 8.12423 3.84641 7.94821 3.92363 7.78761C4.00086 7.62703 4.11929 7.49161 4.27895 7.38136L9.30136 3.59453C9.50632 3.43748 9.73865 3.35895 9.99834 3.35895C10.258 3.35895 10.4915 3.43748 10.6988 3.59453L15.7212 7.38136C15.8808 7.49161 15.9993 7.62703 16.0765 7.78761C16.1537 7.94821 16.1923 8.12423 16.1923 8.31566V16.1121C16.1923 16.3604 16.1022 16.5747 15.9218 16.755C15.7415 16.9354 15.5272 17.0256 15.2789 17.0256H11.738C11.5694 17.0256 11.4285 16.969 11.3155 16.856C11.2024 16.7429 11.1459 16.6021 11.1459 16.4334V11.9238H8.85424V16.4334C8.85424 16.6021 8.79751 16.7429 8.68405 16.856C8.57059 16.969 8.43528 17.0256 8.27811 17.0256H4.71486C4.47145 17.0256 4.25941 16.9354 4.07876 16.755C3.89812 16.5747 3.8078 16.3604 3.8078 16.1121Z" fill="#56616B"/>
</g>
</svg>
