<svg width="20" height="20" viewBox="0 0 20 20" fill="none" xmlns="http://www.w3.org/2000/svg">
<mask id="mask0_1_1517" style="mask-type:alpha" maskUnits="userSpaceOnUse" x="0" y="0" width="20" height="20">
<rect width="20" height="20" fill="#C4C4C4"/>
</mask>
<g mask="url(#mask0_1_1517)">
<path d="M10.0003 13.9583C10.1775 13.9583 10.3259 13.8984 10.4455 13.7786C10.5652 13.6588 10.625 13.5104 10.625 13.3333V9.79164C10.625 9.61457 10.5651 9.46614 10.4452 9.34634C10.3254 9.22655 10.1769 9.16666 9.99975 9.16666C9.82258 9.16666 9.67417 9.22655 9.55452 9.34634C9.43487 9.46614 9.37504 9.61457 9.37504 9.79164V13.3333C9.37504 13.5104 9.43496 13.6588 9.55479 13.7786C9.67464 13.8984 9.82314 13.9583 10.0003 13.9583ZM10 7.74039C10.1907 7.74039 10.3506 7.67589 10.4796 7.54689C10.6086 7.41789 10.6731 7.25803 10.6731 7.06732C10.6731 6.87663 10.6086 6.71678 10.4796 6.58776C10.3506 6.45876 10.1907 6.39426 10 6.39426C9.80931 6.39426 9.64946 6.45876 9.52046 6.58776C9.39146 6.71678 9.32696 6.87663 9.32696 7.06732C9.32696 7.25803 9.39146 7.41789 9.52046 7.54689C9.64946 7.67589 9.80931 7.74039 10 7.74039ZM10.0014 17.9166C8.90647 17.9166 7.87728 17.7089 6.91383 17.2933C5.95037 16.8777 5.1123 16.3138 4.39962 15.6014C3.68693 14.8891 3.12271 14.0514 2.70698 13.0883C2.29124 12.1253 2.08337 11.0963 2.08337 10.0014C2.08337 8.90644 2.29115 7.87725 2.70671 6.9138C3.12226 5.95034 3.68622 5.11228 4.39858 4.39959C5.11096 3.6869 5.94866 3.12268 6.91169 2.70695C7.8747 2.29121 8.90368 2.08334 9.99862 2.08334C11.0936 2.08334 12.1228 2.29112 13.0862 2.70668C14.0497 3.12223 14.8877 3.68619 15.6004 4.39855C16.3131 5.11093 16.8773 5.94863 17.2931 6.91166C17.7088 7.87467 17.9167 8.90365 17.9167 9.99859C17.9167 11.0935 17.7089 12.1227 17.2933 13.0862C16.8778 14.0496 16.3138 14.8877 15.6015 15.6004C14.8891 16.3131 14.0514 16.8773 13.0884 17.293C12.1253 17.7088 11.0964 17.9166 10.0014 17.9166ZM10 16.6667C11.8611 16.6667 13.4375 16.0208 14.7292 14.7292C16.0209 13.4375 16.6667 11.8611 16.6667 9.99999C16.6667 8.13888 16.0209 6.56249 14.7292 5.27082C13.4375 3.97916 11.8611 3.33332 10 3.33332C8.13891 3.33332 6.56252 3.97916 5.27085 5.27082C3.97919 6.56249 3.33335 8.13888 3.33335 9.99999C3.33335 11.8611 3.97919 13.4375 5.27085 14.7292C6.56252 16.0208 8.13891 16.6667 10 16.6667Z" fill="#888F95"/>
</g>
</svg>
