<svg width="20" height="20" viewBox="0 0 20 20" fill="none" xmlns="http://www.w3.org/2000/svg">
<mask id="mask0_1_1527" style="mask-type:alpha" maskUnits="userSpaceOnUse" x="0" y="0" width="20" height="20">
<rect width="20" height="20" fill="#C4C4C4"/>
</mask>
<g mask="url(#mask0_1_1527)">
<path d="M10.0003 13.9583C10.1775 13.9583 10.3259 13.8984 10.4455 13.7786C10.5652 13.6588 10.625 13.5104 10.625 13.3333V9.79162C10.625 9.61455 10.5651 9.46612 10.4452 9.34633C10.3254 9.22654 10.1769 9.16664 9.99975 9.16664C9.82258 9.16664 9.67417 9.22654 9.55452 9.34633C9.43487 9.46612 9.37504 9.61455 9.37504 9.79162V13.3333C9.37504 13.5104 9.43496 13.6588 9.55479 13.7786C9.67464 13.8984 9.82314 13.9583 10.0003 13.9583ZM10 7.74037C10.1907 7.74037 10.3506 7.67587 10.4796 7.54687C10.6086 7.41787 10.6731 7.25802 10.6731 7.06731C10.6731 6.87661 10.6086 6.71676 10.4796 6.58775C10.3506 6.45875 10.1907 6.39425 10 6.39425C9.80931 6.39425 9.64946 6.45875 9.52046 6.58775C9.39146 6.71676 9.32696 6.87661 9.32696 7.06731C9.32696 7.25802 9.39146 7.41787 9.52046 7.54687C9.64946 7.67587 9.80931 7.74037 10 7.74037ZM10.0014 17.9166C8.90647 17.9166 7.87728 17.7088 6.91383 17.2933C5.95037 16.8777 5.1123 16.3138 4.39962 15.6014C3.68693 14.889 3.12271 14.0513 2.70698 13.0883C2.29124 12.1253 2.08337 11.0963 2.08337 10.0014C2.08337 8.90643 2.29115 7.87723 2.70671 6.91379C3.12226 5.95033 3.68622 5.11226 4.39858 4.39958C5.11096 3.68689 5.94866 3.12267 6.91169 2.70693C7.8747 2.2912 8.90368 2.08333 9.99862 2.08333C11.0936 2.08333 12.1228 2.29111 13.0862 2.70666C14.0497 3.12222 14.8877 3.68618 15.6004 4.39854C16.3131 5.11091 16.8773 5.94861 17.2931 6.91164C17.7088 7.87466 17.9167 8.90363 17.9167 9.99858C17.9167 11.0935 17.7089 12.1227 17.2933 13.0862C16.8778 14.0496 16.3138 14.8877 15.6015 15.6004C14.8891 16.3131 14.0514 16.8773 13.0884 17.293C12.1253 17.7088 11.0964 17.9166 10.0014 17.9166ZM10 16.6666C11.8611 16.6666 13.4375 16.0208 14.7292 14.7291C16.0209 13.4375 16.6667 11.8611 16.6667 9.99997C16.6667 8.13886 16.0209 6.56247 14.7292 5.27081C13.4375 3.97914 11.8611 3.33331 10 3.33331C8.13891 3.33331 6.56252 3.97914 5.27085 5.27081C3.97919 6.56247 3.33335 8.13886 3.33335 9.99997C3.33335 11.8611 3.97919 13.4375 5.27085 14.7291C6.56252 16.0208 8.13891 16.6666 10 16.6666Z" fill="#888F95"/>
</g>
</svg>
