<svg width="20" height="20" viewBox="0 0 20 20" fill="none" xmlns="http://www.w3.org/2000/svg">
<mask id="mask0_1_1512" style="mask-type:alpha" maskUnits="userSpaceOnUse" x="0" y="0" width="20" height="20">
<rect width="20" height="20" fill="#C4C4C4"/>
</mask>
<g mask="url(#mask0_1_1512)">
<path d="M10.0003 13.9583C10.1775 13.9583 10.3259 13.8984 10.4455 13.7786C10.5652 13.6588 10.625 13.5104 10.625 13.3333V9.79161C10.625 9.61454 10.5651 9.46611 10.4452 9.34631C10.3254 9.22652 10.1769 9.16663 9.99975 9.16663C9.82258 9.16663 9.67417 9.22652 9.55452 9.34631C9.43487 9.46611 9.37504 9.61454 9.37504 9.79161V13.3333C9.37504 13.5104 9.43496 13.6588 9.55479 13.7786C9.67464 13.8984 9.82314 13.9583 10.0003 13.9583ZM10 7.74036C10.1907 7.74036 10.3506 7.67586 10.4796 7.54685C10.6086 7.41785 10.6731 7.258 10.6731 7.06729C10.6731 6.8766 10.6086 6.71674 10.4796 6.58773C10.3506 6.45873 10.1907 6.39423 10 6.39423C9.80931 6.39423 9.64946 6.45873 9.52046 6.58773C9.39146 6.71674 9.32696 6.8766 9.32696 7.06729C9.32696 7.258 9.39146 7.41785 9.52046 7.54685C9.64946 7.67586 9.80931 7.74036 10 7.74036ZM10.0014 17.9166C8.90647 17.9166 7.87728 17.7088 6.91383 17.2933C5.95037 16.8777 5.1123 16.3138 4.39962 15.6014C3.68693 14.889 3.12271 14.0513 2.70698 13.0883C2.29124 12.1253 2.08337 11.0963 2.08337 10.0014C2.08337 8.90641 2.29115 7.87722 2.70671 6.91377C3.12226 5.95031 3.68622 5.11224 4.39858 4.39956C5.11096 3.68687 5.94866 3.12265 6.91169 2.70692C7.8747 2.29118 8.90368 2.08331 9.99862 2.08331C11.0936 2.08331 12.1228 2.29109 13.0862 2.70665C14.0497 3.1222 14.8877 3.68616 15.6004 4.39852C16.3131 5.1109 16.8773 5.9486 17.2931 6.91163C17.7088 7.87464 17.9167 8.90362 17.9167 9.99856C17.9167 11.0935 17.7089 12.1227 17.2933 13.0861C16.8778 14.0496 16.3138 14.8877 15.6015 15.6004C14.8891 16.3131 14.0514 16.8773 13.0884 17.293C12.1253 17.7087 11.0964 17.9166 10.0014 17.9166ZM10 16.6666C11.8611 16.6666 13.4375 16.0208 14.7292 14.7291C16.0209 13.4375 16.6667 11.8611 16.6667 9.99996C16.6667 8.13885 16.0209 6.56246 14.7292 5.27079C13.4375 3.97913 11.8611 3.33329 10 3.33329C8.13891 3.33329 6.56252 3.97913 5.27085 5.27079C3.97919 6.56246 3.33335 8.13885 3.33335 9.99996C3.33335 11.8611 3.97919 13.4375 5.27085 14.7291C6.56252 16.0208 8.13891 16.6666 10 16.6666Z" fill="#888F95"/>
</g>
</svg>
