<svg width="20" height="20" viewBox="0 0 20 20" fill="none" xmlns="http://www.w3.org/2000/svg">
<mask id="mask0_0_494" style="mask-type:alpha" maskUnits="userSpaceOnUse" x="0" y="0" width="20" height="20">
<rect width="20" height="20" fill="#D9D9D9"/>
</mask>
<g mask="url(#mask0_0_494)">
<path d="M6.69613 13.9727C6.82502 13.9727 6.93273 13.9285 7.01926 13.8402C7.1058 13.7519 7.14907 13.6414 7.14907 13.5088V9.12897C7.14907 9.00743 7.10418 8.90212 7.01438 8.81305C6.92459 8.724 6.81838 8.67947 6.69576 8.67947C6.56208 8.67947 6.45197 8.724 6.36543 8.81305C6.2789 8.90212 6.23563 9.00743 6.23563 9.12897V13.5088C6.23563 13.6414 6.28016 13.7519 6.36922 13.8402C6.45829 13.9285 6.56726 13.9727 6.69613 13.9727ZM10.007 13.9727C10.1359 13.9727 10.2436 13.9285 10.3302 13.8402C10.4167 13.7519 10.4599 13.6414 10.4599 13.5088V6.47674C10.4599 6.35519 10.4151 6.24988 10.3253 6.16082C10.2355 6.07175 10.1293 6.02722 10.0067 6.02722C9.87297 6.02722 9.76286 6.07175 9.67632 6.16082C9.58978 6.24988 9.54651 6.35519 9.54651 6.47674V13.5088C9.54651 13.6414 9.59104 13.7519 9.68011 13.8402C9.76918 13.9285 9.87816 13.9727 10.007 13.9727ZM13.3115 13.9727C13.4404 13.9727 13.5481 13.9285 13.6346 13.8402C13.7212 13.7519 13.7644 13.6414 13.7644 13.5088V11.7219C13.7644 11.6056 13.7195 11.5016 13.6298 11.4099C13.54 11.3182 13.4338 11.2724 13.3111 11.2724C13.1774 11.2724 13.0673 11.3182 12.9808 11.4099C12.8943 11.5016 12.851 11.6056 12.851 11.7219V13.5088C12.851 13.6414 12.8955 13.7519 12.9846 13.8402C13.0737 13.9285 13.1826 13.9727 13.3115 13.9727ZM4.14238 17.0256C3.82851 17.0256 3.55538 16.9094 3.32301 16.677C3.09062 16.4446 2.97443 16.1715 2.97443 15.8576V4.14232C2.97443 3.82845 3.09062 3.55532 3.32301 3.32295C3.55538 3.09056 3.82851 2.97437 4.14238 2.97437H15.8577C16.1716 2.97437 16.4447 3.09056 16.6771 3.32295C16.9094 3.55532 17.0256 3.82845 17.0256 4.14232V15.8576C17.0256 16.1715 16.9094 16.4446 16.6771 16.677C16.4447 16.9094 16.1716 17.0256 15.8577 17.0256H4.14238ZM4.14428 16.1121H15.8558C15.9199 16.1121 15.9786 16.0854 16.0321 16.032C16.0855 15.9786 16.1122 15.9198 16.1122 15.8557V4.14422C16.1122 4.08012 16.0855 4.02136 16.0321 3.96793C15.9786 3.91451 15.9199 3.8878 15.8558 3.8878H4.14428C4.08018 3.8878 4.02142 3.91451 3.96799 3.96793C3.91457 4.02136 3.88786 4.08012 3.88786 4.14422V15.8557C3.88786 15.9198 3.91457 15.9786 3.96799 16.032C4.02142 16.0854 4.08018 16.1121 4.14428 16.1121Z" fill="#56616B"/>
</g>
</svg>
