<svg width="771" height="6" viewBox="0 0 771 6" fill="none" xmlns="http://www.w3.org/2000/svg">
<path d="M2.02777e-05 2.66826C2.02777e-05 4.1419 1.19464 5.33652 2.66828 5.33652C4.14191 5.33652 5.33653 4.1419 5.33653 2.66826C5.33653 1.19462 4.14191 5.00977e-06 2.66828 5.00977e-06C1.19464 5.00977e-06 2.02777e-05 1.19462 2.02777e-05 2.66826ZM765.663 2.66826C765.663 4.1419 766.858 5.33652 768.332 5.33652C769.805 5.33652 771 4.1419 771 2.66826C771 1.19462 769.805 5.00977e-06 768.332 5.00977e-06C766.858 5.00977e-06 765.663 1.19462 765.663 2.66826ZM2.66828 3.16856L768.332 3.16856V2.16796L2.66828 2.16796V3.16856Z" fill="#DBDEE6"/>
</svg>
