<svg width="24" height="24" viewBox="0 0 24 24" fill="none" xmlns="http://www.w3.org/2000/svg">
<path d="M20.52 6.64998V21.05C20.52 21.63 20.05 22.1 19.47 22.1H9.28999C8.70999 22.1 8.23999 21.63 8.23999 21.05V20.16L17.34 16.72C17.7 16.58 17.94 16.24 17.94 15.85V5.59998H19.47C20.05 5.59998 20.52 6.06998 20.52 6.64998Z" fill="url(#paint0_linear_0_463)"/>
<path d="M17.94 5.59998V15.86C17.94 16.25 17.7 16.59 17.34 16.73L8.23999 20.17V6.64998C8.23999 6.06998 8.70999 5.59998 9.28999 5.59998H17.94Z" fill="url(#paint1_linear_0_463)"/>
<path d="M17.94 2.92999V5.59999H9.28998C8.70998 5.59999 8.23998 6.06999 8.23998 6.64999V20.17L4.73998 21.49C4.12998 21.72 3.47998 21.27 3.47998 20.62V2.91999C3.47998 2.40999 3.89998 1.98999 4.40998 1.98999H17.01C17.52 1.99999 17.94 2.41999 17.94 2.92999Z" fill="url(#paint2_linear_0_463)"/>
<defs>
<linearGradient id="paint0_linear_0_463" x1="8.24196" y1="13.8522" x2="20.518" y2="13.8522" gradientUnits="userSpaceOnUse">
<stop stop-color="#FCFF1C"/>
<stop offset="1" stop-color="#FF9D0A"/>
</linearGradient>
<linearGradient id="paint1_linear_0_463" x1="8.24196" y1="12.8857" x2="17.937" y2="12.8857" gradientUnits="userSpaceOnUse">
<stop stop-color="#FFDDCD"/>
<stop offset="1" stop-color="#FF5403"/>
</linearGradient>
<linearGradient id="paint2_linear_0_463" x1="3.48199" y1="11.7778" x2="17.937" y2="11.7778" gradientUnits="userSpaceOnUse">
<stop stop-color="#E7CFFF"/>
<stop offset="1" stop-color="#870FFF"/>
</linearGradient>
</defs>
</svg>
